<?xml version="1.0" standalone="no"?>
<!DOCTYPE svg PUBLIC "-//W3C//DTD SVG 20010904//EN"
 "http://www.w3.org/TR/2001/REC-SVG-20010904/DTD/svg10.dtd">
<svg version="1.0" xmlns="http://www.w3.org/2000/svg"
 width="512.000000pt" height="512.000000pt" viewBox="0 0 512.000000 512.000000"
 preserveAspectRatio="xMidYMid meet">
<metadata>
Created by potrace 1.14, written by Peter Selinger 2001-2017
</metadata>
<g transform="translate(0.000000,512.000000) scale(0.100000,-0.100000)"
fill="#000000" stroke="none">
<path d="M2172 4520 c2 -12 -5 -14 -35 -12 -21 2 -44 -2 -52 -8 -17 -14 -126
-80 -132 -80 -2 0 -9 -5 -16 -10 -14 -13 -113 -77 -139 -91 -14 -8 -24 -7 -36
3 -15 12 -16 11 -3 -4 12 -16 9 -22 -11 -19 -5 0 -8 -3 -8 -8 0 -5 -19 -19
-42 -31 -24 -12 -45 -25 -48 -29 -13 -18 -112 -71 -122 -65 -6 4 -8 3 -5 -3 4
-6 -40 -39 -96 -74 -56 -34 -113 -71 -126 -81 -13 -10 -27 -16 -31 -13 -4 3
-11 -2 -14 -11 -4 -10 -12 -14 -23 -10 -10 4 -14 4 -10 0 12 -12 -126 -94
-139 -83 -8 7 -11 5 -10 -7 0 -11 -14 -25 -39 -38 -22 -12 -42 -24 -45 -27
-11 -13 -95 -63 -103 -61 -4 1 -10 -11 -13 -28 -4 -18 -11 -27 -18 -23 -8 5
-8 3 0 -8 17 -21 18 -323 2 -313 -10 6 -10 5 -1 -7 17 -21 17 -603 0 -593 -9
6 -9 4 -1 -7 16 -19 16 -199 1 -218 -9 -11 -9 -13 0 -8 9 6 12 -113 12 -524
-1 -502 0 -531 18 -544 10 -7 21 -11 24 -9 4 2 12 -3 19 -11 7 -8 23 -15 35
-15 13 0 25 -5 27 -10 2 -6 13 -12 25 -14 11 -3 35 -12 52 -20 16 -9 37 -16
46 -16 8 0 15 -3 15 -8 0 -4 19 -13 43 -20 23 -7 50 -23 60 -35 14 -18 16 -18
11 -4 -6 17 -5 18 17 5 13 -7 27 -17 30 -21 3 -5 9 -8 13 -8 19 3 57 -13 53
-23 -3 -8 4 -11 24 -8 16 2 29 0 29 -6 0 -5 14 -12 31 -16 20 -4 28 -10 23
-17 -4 -7 -3 -9 3 -6 14 9 89 -18 86 -31 -1 -5 6 -9 15 -9 27 1 72 -14 67 -23
-2 -4 7 -7 21 -8 15 0 29 -4 33 -9 3 -5 25 -15 49 -23 23 -7 42 -17 42 -21 0
-4 12 -9 28 -11 15 -2 26 -8 25 -15 -2 -7 3 -10 11 -7 17 6 55 -12 74 -35 8
-9 10 -10 6 -2 -4 9 -2 12 7 9 8 -3 13 -10 12 -15 -1 -6 9 -9 23 -7 13 1 30
-3 37 -9 7 -7 19 -13 27 -15 30 -5 59 -25 53 -36 -4 -6 1 -5 10 3 15 12 21 9
19 -10 -1 -4 8 -5 18 -2 12 3 20 0 20 -7 0 -6 6 -10 13 -7 6 2 23 -1 37 -8 46
-24 120 -55 130 -55 5 0 10 -4 10 -10 0 -5 9 -10 20 -10 22 0 70 -20 70 -29 0
-4 10 -7 22 -8 11 -1 24 -7 28 -13 4 -7 10 -11 14 -11 18 3 27 0 23 -6 -3 -5
6 -9 20 -10 14 0 28 -5 32 -10 3 -4 15 -10 26 -12 34 -5 56 -21 48 -34 -4 -7
0 -7 10 2 15 12 21 9 19 -10 -1 -4 8 -5 18 -2 12 3 20 0 20 -6 0 -7 4 -10 8
-7 5 3 21 -2 36 -10 16 -7 35 -14 42 -14 8 0 14 -4 14 -10 0 -5 9 -10 20 -10
11 0 20 -5 20 -12 0 -6 3 -9 6 -5 3 3 24 -1 45 -8 22 -8 37 -10 34 -5 -4 6 3
24 15 40 12 17 18 30 13 30 -4 0 -3 4 3 8 6 4 20 28 33 54 12 26 28 46 34 44
7 -1 9 -1 5 1 -14 8 -9 33 7 39 8 4 12 10 9 15 -3 5 0 9 5 9 6 0 10 3 10 7 -3
21 2 33 13 27 7 -4 8 -3 4 4 -7 11 11 51 27 63 5 3 8 9 8 13 -1 15 12 35 20
30 5 -3 6 2 3 10 -3 9 -1 16 6 16 6 0 8 5 5 10 -3 6 -1 10 4 10 6 0 10 3 9 8
-4 13 13 52 23 52 5 0 8 3 8 8 -3 20 2 32 16 32 9 0 12 6 9 15 -4 8 -1 15 5
15 6 0 8 6 5 13 -2 7 4 21 15 31 11 10 18 23 15 27 -3 5 2 9 10 9 9 0 13 6 10
14 -5 14 20 64 39 77 5 3 8 9 8 13 -1 13 14 42 28 54 9 8 11 11 4 8 -6 -4 -2
11 10 33 12 22 26 37 31 34 5 -4 6 -1 2 5 -11 19 12 52 32 46 15 -5 15 -4 2 6
-11 9 -12 13 -2 17 6 2 9 10 6 15 -4 6 1 17 11 25 11 7 15 13 11 13 -8 0 45
103 57 108 4 2 7 11 7 20 1 26 27 55 42 47 10 -6 10 -5 1 5 -14 15 4 63 20 53
6 -3 7 -1 3 5 -3 6 4 30 18 54 13 24 36 66 51 95 16 29 33 49 38 46 6 -3 7 -1
3 5 -8 14 20 72 35 72 6 0 8 4 4 9 -7 12 34 93 45 86 4 -3 14 3 21 13 13 16
13 16 -5 2 -18 -14 -18 -13 -11 10 4 14 12 27 16 28 5 2 9 11 9 21 0 9 9 27
19 38 11 12 17 24 14 27 -4 3 -1 6 5 6 7 0 12 8 12 18 1 22 24 52 41 52 11 0
11 2 -1 10 -13 9 -13 11 0 20 8 5 15 13 16 17 0 7 24 63 31 72 1 2 11 -2 20
-10 15 -11 15 -10 -1 9 -11 12 -14 22 -8 22 7 0 12 7 12 15 0 9 6 18 14 21 8
3 12 12 9 20 -3 8 0 14 6 14 6 0 10 3 9 8 -1 8 13 45 21 52 3 3 21 35 39 73
18 37 37 67 42 67 5 0 7 6 4 14 -3 8 0 17 7 22 8 5 10 3 4 -6 -5 -9 -4 -11 4
-6 6 4 9 11 6 16 -8 13 35 89 48 86 7 -1 9 -1 5 1 -12 7 -10 33 2 33 6 0 10 7
10 16 0 11 5 14 18 9 13 -5 14 -4 5 6 -10 10 -9 19 4 43 30 58 36 71 28 64
-11 -10 -35 10 -35 29 0 8 -9 32 -20 55 -11 22 -17 45 -14 49 3 5 0 9 -6 9 -6
0 -9 4 -5 9 3 5 0 13 -6 16 -5 4 -8 14 -5 22 3 8 2 12 -3 9 -11 -7 -29 42 -25
67 1 9 -1 15 -5 13 -8 -5 -36 57 -32 70 2 4 -2 10 -9 14 -6 4 -12 17 -13 28
-1 12 -5 22 -10 22 -5 0 -7 11 -5 25 3 13 1 22 -4 19 -4 -3 -11 3 -14 13 -3
10 -10 26 -15 36 -6 11 -8 21 -5 24 3 3 -1 12 -9 20 -8 8 -15 23 -15 33 0 10
-4 22 -10 25 -5 3 -10 15 -10 26 0 13 4 18 12 13 7 -4 8 -3 4 5 -4 6 -12 9
-17 5 -12 -7 -42 64 -35 83 3 8 1 11 -4 8 -8 -5 -13 5 -9 18 0 1 -11 26 -26
55 -14 29 -27 61 -28 72 -1 11 -5 20 -10 20 -5 0 -7 7 -3 15 3 8 0 15 -5 15
-6 0 -9 9 -6 20 3 11 2 18 -3 15 -11 -7 -22 24 -13 37 3 6 2 8 -4 5 -10 -6
-41 70 -35 87 2 5 -3 4 -11 -2 -8 -7 -16 -10 -18 -7 -3 2 -27 7 -54 10 -28 4
-63 10 -80 14 -16 4 -38 7 -47 5 -10 -1 -18 1 -18 4 0 7 -39 12 -89 12 -12 0
-28 3 -35 7 -6 4 -31 9 -56 11 -24 2 -47 8 -51 14 -4 6 -9 7 -13 0 -6 -10 -76
2 -110 20 -12 6 -16 6 -12 -1 4 -6 -4 -7 -24 -1 -16 5 -30 6 -30 2 0 -4 -7 2
-15 12 -8 11 -15 14 -15 8 0 -7 -7 -12 -16 -12 -9 0 -12 5 -8 13 6 9 5 9 -8 0
-8 -7 -17 -10 -21 -7 -7 7 -54 15 -85 15 -16 -1 -21 3 -16 12 6 9 5 9 -8 0 -8
-7 -18 -10 -21 -7 -7 7 -43 14 -92 17 -16 1 -30 7 -30 14 0 6 -4 15 -8 20 -5
4 -7 1 -5 -7 2 -9 -5 -15 -19 -16 -13 -1 -23 2 -23 6 0 4 -12 5 -26 2 -21 -4
-25 -2 -19 9 7 11 6 12 -7 2 -8 -7 -17 -10 -20 -8 -3 3 -27 8 -54 12 -27 3
-51 8 -54 12 -3 3 -21 6 -40 7 -35 1 -70 6 -185 25 -105 17 -129 21 -155 22
-14 1 -25 7 -25 14 0 6 -4 15 -8 20 -5 4 -7 1 -5 -7z"/>
<path d="M1889 4437 c6 -8 7 -18 3 -22 -4 -5 -1 -5 6 -1 10 6 10 11 1 22 -6 8
-14 14 -16 14 -3 0 0 -6 6 -13z"/>
<path d="M2847 4419 c7 -7 15 -10 18 -7 3 3 -2 9 -12 12 -14 6 -15 5 -6 -5z"/>
<path d="M1867 4399 c7 -7 15 -10 18 -7 3 3 -2 9 -12 12 -14 6 -15 5 -6 -5z"/>
<path d="M3362 4344 c10 -10 20 -16 22 -13 3 3 -5 11 -17 18 -21 13 -21 12 -5
-5z"/>
<path d="M1775 4339 c-3 -4 2 -6 10 -5 21 3 28 13 10 13 -9 0 -18 -4 -20 -8z"/>
<path d="M3600 4300 c-12 -7 -10 -9 7 -7 12 0 19 5 17 9 -6 10 -6 10 -24 -2z"/>
<path d="M1575 4231 c-3 -5 -2 -12 3 -15 5 -3 9 1 9 9 0 17 -3 19 -12 6z"/>
<path d="M1336 4058 c3 -5 10 -6 15 -3 13 9 11 12 -6 12 -8 0 -12 -4 -9 -9z"/>
<path d="M1246 4022 c-3 -5 1 -9 9 -9 8 0 12 4 9 9 -3 4 -7 8 -9 8 -2 0 -6 -4
-9 -8z"/>
<path d="M3970 3861 c0 -6 4 -13 10 -16 6 -3 7 1 4 9 -7 18 -14 21 -14 7z"/>
<path d="M915 3811 c-3 -5 -2 -12 3 -15 5 -3 9 1 9 9 0 17 -3 19 -12 6z"/>
<path d="M4116 2782 c-3 -5 1 -9 9 -9 8 0 12 4 9 9 -3 4 -7 8 -9 8 -2 0 -6 -4
-9 -8z"/>
<path d="M4079 2768 c-5 -18 -6 -38 -1 -34 7 8 12 36 6 36 -2 0 -4 -1 -5 -2z"/>
<path d="M3956 2518 c3 -5 10 -6 15 -3 13 9 11 12 -6 12 -8 0 -12 -4 -9 -9z"/>
<path d="M3889 2363 c-13 -16 -12 -17 4 -4 16 13 21 21 13 21 -2 0 -10 -8 -17
-17z"/>
<path d="M3790 2200 c0 -5 5 -10 11 -10 5 0 7 5 4 10 -3 6 -8 10 -11 10 -2 0
-4 -4 -4 -10z"/>
<path d="M3620 1875 c-7 -9 -11 -17 -9 -20 3 -2 10 5 17 15 14 24 10 26 -8 5z"/>
<path d="M3546 1758 c3 -5 10 -6 15 -3 13 9 11 12 -6 12 -8 0 -12 -4 -9 -9z"/>
<path d="M800 1640 c-9 -6 -10 -10 -3 -10 6 0 15 5 18 10 8 12 4 12 -15 0z"/>
<path d="M3393 1465 c0 -8 4 -12 9 -9 5 3 6 10 3 15 -9 13 -12 11 -12 -6z"/>
<path d="M935 1420 c-3 -5 -1 -10 4 -10 6 0 11 5 11 10 0 6 -2 10 -4 10 -3 0
-8 -4 -11 -10z"/>
<path d="M1016 1402 c-3 -5 1 -9 9 -9 8 0 12 4 9 9 -3 4 -7 8 -9 8 -2 0 -6 -4
-9 -8z"/>
<path d="M3356 1333 c-6 -14 -5 -15 5 -6 7 7 10 15 7 18 -3 3 -9 -2 -12 -12z"/>
<path d="M1616 1113 c-6 -14 -5 -15 5 -6 7 7 10 15 7 18 -3 3 -9 -2 -12 -12z"/>
<path d="M3210 1119 c0 -5 5 -7 10 -4 6 3 10 8 10 11 0 2 -4 4 -10 4 -5 0 -10
-5 -10 -11z"/>
<path d="M3136 942 c-3 -5 1 -9 9 -9 8 0 12 4 9 9 -3 4 -7 8 -9 8 -2 0 -6 -4
-9 -8z"/>
<path d="M2216 878 c3 -4 11 -5 19 -1 21 7 19 12 -4 10 -11 0 -18 -5 -15 -9z"/>
<path d="M2256 862 c-3 -5 1 -9 9 -9 8 0 12 4 9 9 -3 4 -7 8 -9 8 -2 0 -6 -4
-9 -8z"/>
<path d="M2290 860 c0 -5 5 -10 11 -10 5 0 7 5 4 10 -3 6 -8 10 -11 10 -2 0
-4 -4 -4 -10z"/>
<path d="M2395 820 c3 -5 8 -10 11 -10 2 0 4 5 4 10 0 6 -5 10 -11 10 -5 0 -7
-4 -4 -10z"/>
<path d="M2616 727 c3 -10 9 -15 12 -12 3 3 0 11 -7 18 -10 9 -11 8 -5 -6z"/>
<path d="M2636 687 c3 -10 9 -15 12 -12 3 3 0 11 -7 18 -10 9 -11 8 -5 -6z"/>
<path d="M2696 653 c-6 -14 -5 -15 5 -6 7 7 10 15 7 18 -3 3 -9 -2 -12 -12z"/>
</g>
</svg>
