<svg width="189" height="200" viewBox="0 0 189 200" fill="none" xmlns="http://www.w3.org/2000/svg">
<g filter="url(#filter0_ddd_11_112)">
<path d="M75.5 25L25 56.5V148.5L109 184.5L163.5 82L145 36L75.5 25Z" fill="#37C6FE"/>
<g style="mix-blend-mode:lighten">
<path d="M130.5 57.5L79.5 49.5L50 65V130L100.5 151L135.5 76L130.5 57.5Z" fill="white" fill-opacity="0.55"/>
</g>
<g style="mix-blend-mode:lighten">
<path d="M135.5 76L130.5 57.5L50 130L100.5 151L135.5 76Z" fill="white" fill-opacity="0.2"/>
</g>
<g style="mix-blend-mode:lighten">
<path d="M79.5 49.5L130.5 57.5L50 65L100.5 151L50 130V65L79.5 49.5Z" fill="white" fill-opacity="0.2"/>
</g>
<g style="mix-blend-mode:lighten">
<path d="M100.5 151L130.5 57.5L135.5 76L100.5 151L50 130V65L100.5 151Z" fill="white" fill-opacity="0.2"/>
</g>
<g style="mix-blend-mode:lighten">
<path d="M100.5 151L130.5 57.5L135.5 76L100.5 151L50 130L79.5 49.5L100.5 151Z" fill="white" fill-opacity="0.2"/>
</g>
<g style="mix-blend-mode:darken">
<path d="M79.5 49.5L130.5 57.5L50 130V65L79.5 49.5Z" fill="url(#paint0_linear_11_112)"/>
</g>
<g style="mix-blend-mode:darken">
<path d="M79.5 49.5L130.5 57.5L135.5 76L100 150.5L79.5 49.5Z" fill="url(#paint1_linear_11_112)"/>
</g>
<g style="mix-blend-mode:lighten">
<path d="M50 130L25 148.5L109 184.5L100.5 151L50 130Z" fill="white" fill-opacity="0.5"/>
</g>
<path d="M25 148.5L108.5 183.5L100.5 151L50 130L25 148.5Z" fill="url(#paint2_linear_11_112)" fill-opacity="0.6"/>
<path d="M25 148.5L108.5 183.5L100.5 151L50 130L25 148.5Z" fill="url(#paint3_linear_11_112)" fill-opacity="0.8"/>
<g style="mix-blend-mode:soft-light">
<path d="M100.5 151.5L50 130L25 148.5L100.5 151.5Z" fill="white" fill-opacity="0.4"/>
</g>
<g style="mix-blend-mode:soft-light">
<path d="M100.5 152L108.5 184L50 130L100.5 152Z" fill="white" fill-opacity="0.2"/>
</g>
<path d="M109 184.5L100.5 151L135.5 76L163.5 82L109 184.5Z" fill="white" fill-opacity="0.55"/>
<path d="M109 184.5L100.5 151L135.5 76L163.5 82L109 184.5Z" fill="white" fill-opacity="0.55"/>
<path d="M109 184.5L100.5 151L135.5 76L163.5 82L109 184.5Z" fill="url(#paint4_linear_11_112)"/>
<path d="M109 184.5L100.5 151L135.5 76L163.5 82L109 184.5Z" fill="url(#paint5_linear_11_112)" fill-opacity="0.8"/>
<path d="M109 184.5L100.5 151L135.5 76L109 184.5Z" fill="white" fill-opacity="0.4"/>
<path d="M163.5 82L100.5 151L135.5 76L163.5 82Z" fill="white" fill-opacity="0.2"/>
<path d="M163.5 82L135.5 76L130.5 57.5L145 36L163.5 82Z" fill="white" fill-opacity="0.55"/>
<path d="M163.5 82L135.5 76L130.5 57.5L145 36L163.5 82Z" fill="url(#paint6_linear_11_112)"/>
<path d="M163.5 82L135.5 76L130.5 57.5L145 36L163.5 82Z" fill="url(#paint7_linear_11_112)" fill-opacity="0.8"/>
<path d="M145 36L135.5 76L130.5 57.5L145 36Z" fill="white" fill-opacity="0.4"/>
<path d="M163.5 82L135.5 76L130.5 57.5L163.5 82Z" fill="white" fill-opacity="0.2"/>
<path d="M130.5 57.5L145 36L75.5 25L79.5 49.5L130.5 57.5Z" fill="white" fill-opacity="0.4"/>
<path d="M130.5 57.5L145 36L75.5 25L79.5 49.5L130.5 57.5Z" fill="url(#paint8_linear_11_112)"/>
<path d="M130.5 57.5L145 36L75.5 25L79.5 49.5L130.5 57.5Z" fill="url(#paint9_linear_11_112)" fill-opacity="0.8"/>
<path d="M130.5 57.5L75.5 25L79.5 49.5L130.5 57.5Z" fill="white" fill-opacity="0.4"/>
<path d="M130.5 57.5L145 36L79.5 49.5L130.5 57.5Z" fill="white" fill-opacity="0.2"/>
<path d="M50 65L79.5 49.5L75.5 25L25 56.5L50 65Z" fill="white" fill-opacity="0.4"/>
<path d="M50 65L79.5 49.5L75.5 25L25 56.5L50 65Z" fill="url(#paint10_linear_11_112)"/>
<path d="M50 65L79.5 49.5L75.5 25L25 56.5L50 65Z" fill="url(#paint11_linear_11_112)" fill-opacity="0.8"/>
<path d="M50 65L79.5 49.5L25 56.5L50 65Z" fill="white" fill-opacity="0.4"/>
<path d="M50 65L79.5 49.5L75.5 25L50 65Z" fill="white" fill-opacity="0.2"/>
<path d="M50 65L25 56.5V148.5L50 130V65Z" fill="white" fill-opacity="0.55"/>
<path d="M50 65L25 56.5V148.5L50 130V65Z" fill="url(#paint12_linear_11_112)" fill-opacity="0.8"/>
<path d="M50 65L25 56.5V148.5L50 130V65Z" fill="url(#paint13_linear_11_112)" fill-opacity="0.6"/>
<g style="mix-blend-mode:soft-light">
<path d="M50 65L25 148.5L50 130V65Z" fill="white" fill-opacity="0.4"/>
</g>
<g style="mix-blend-mode:soft-light">
<path d="M50 65L25 56.5L50 130V65Z" fill="white" fill-opacity="0.4"/>
</g>
</g>
<defs>
<filter id="filter0_ddd_11_112" x="0" y="0" width="188.5" height="199.5" filterUnits="userSpaceOnUse" color-interpolation-filters="sRGB">
<feFlood flood-opacity="0" result="BackgroundImageFix"/>
<feColorMatrix in="SourceAlpha" type="matrix" values="0 0 0 0 0 0 0 0 0 0 0 0 0 0 0 0 0 0 127 0" result="hardAlpha"/>
<feOffset dy="5"/>
<feGaussianBlur stdDeviation="5"/>
<feComposite in2="hardAlpha" operator="out"/>
<feColorMatrix type="matrix" values="0 0 0 0 0 0 0 0 0 0 0 0 0 0 0 0 0 0 0.25 0"/>
<feBlend mode="normal" in2="BackgroundImageFix" result="effect1_dropShadow_11_112"/>
<feColorMatrix in="SourceAlpha" type="matrix" values="0 0 0 0 0 0 0 0 0 0 0 0 0 0 0 0 0 0 127 0" result="hardAlpha"/>
<feOffset dx="-5" dy="-5"/>
<feGaussianBlur stdDeviation="10"/>
<feComposite in2="hardAlpha" operator="out"/>
<feColorMatrix type="matrix" values="0 0 0 0 0.45098 0 0 0 0 0 0 0 0 0 0.760784 0 0 0 0.15 0"/>
<feBlend mode="normal" in2="effect1_dropShadow_11_112" result="effect2_dropShadow_11_112"/>
<feColorMatrix in="SourceAlpha" type="matrix" values="0 0 0 0 0 0 0 0 0 0 0 0 0 0 0 0 0 0 127 0" result="hardAlpha"/>
<feOffset dx="5" dy="-5"/>
<feGaussianBlur stdDeviation="10"/>
<feComposite in2="hardAlpha" operator="out"/>
<feColorMatrix type="matrix" values="0 0 0 0 0.0166667 0 0 0 0 0.0559999 0 0 0 0 1 0 0 0 0.15 0"/>
<feBlend mode="normal" in2="effect2_dropShadow_11_112" result="effect3_dropShadow_11_112"/>
<feBlend mode="normal" in="SourceGraphic" in2="effect3_dropShadow_11_112" result="shape"/>
</filter>
<linearGradient id="paint0_linear_11_112" x1="16.5" y1="-7" x2="87" y2="93" gradientUnits="userSpaceOnUse">
<stop stop-color="#7300C2"/>
<stop offset="1" stop-color="#7300C2" stop-opacity="0"/>
</linearGradient>
<linearGradient id="paint1_linear_11_112" x1="182.5" y1="-1.5" x2="87" y2="93" gradientUnits="userSpaceOnUse">
<stop stop-color="#040EFF"/>
<stop offset="1" stop-color="#040EFF" stop-opacity="0"/>
</linearGradient>
<linearGradient id="paint2_linear_11_112" x1="13.3606" y1="1.5" x2="101.202" y2="183.834" gradientUnits="userSpaceOnUse">
<stop offset="0.691812" stop-color="#7300C2"/>
<stop offset="1" stop-color="#D9D9D9" stop-opacity="0"/>
</linearGradient>
<linearGradient id="paint3_linear_11_112" x1="202.627" y1="1.5" x2="65.4158" y2="166.13" gradientUnits="userSpaceOnUse">
<stop offset="0.848788" stop-color="#040EFF"/>
<stop offset="1" stop-color="#D9D9D9" stop-opacity="0"/>
</linearGradient>
<linearGradient id="paint4_linear_11_112" x1="91.7182" y1="-184.603" x2="312.117" y2="-14.4055" gradientUnits="userSpaceOnUse">
<stop offset="0.691812" stop-color="#7300C2"/>
<stop offset="1" stop-color="#D9D9D9" stop-opacity="0"/>
</linearGradient>
<linearGradient id="paint5_linear_11_112" x1="234.518" y1="-184.603" x2="23.922" y2="-90.5989" gradientUnits="userSpaceOnUse">
<stop offset="0.848788" stop-color="#040EFF"/>
<stop offset="1" stop-color="#D9D9D9" stop-opacity="0"/>
</linearGradient>
<linearGradient id="paint6_linear_11_112" x1="125.9" y1="-74.486" x2="222.373" y2="17.5581" gradientUnits="userSpaceOnUse">
<stop offset="0.691812" stop-color="#7300C2"/>
<stop offset="1" stop-color="#D9D9D9" stop-opacity="0"/>
</linearGradient>
<linearGradient id="paint7_linear_11_112" x1="200.7" y1="-74.486" x2="99.2607" y2="-18.5428" gradientUnits="userSpaceOnUse">
<stop offset="0.848788" stop-color="#040EFF"/>
<stop offset="1" stop-color="#D9D9D9" stop-opacity="0"/>
</linearGradient>
<linearGradient id="paint8_linear_11_112" x1="65.8121" y1="-53.0607" x2="108.518" y2="68.3948" gradientUnits="userSpaceOnUse">
<stop offset="0.691812" stop-color="#7300C2"/>
<stop offset="1" stop-color="#D9D9D9" stop-opacity="0"/>
</linearGradient>
<linearGradient id="paint9_linear_11_112" x1="223.345" y1="-53.0607" x2="148.096" y2="70.6449" gradientUnits="userSpaceOnUse">
<stop offset="0.848788" stop-color="#040EFF"/>
<stop offset="1" stop-color="#D9D9D9" stop-opacity="0"/>
</linearGradient>
<linearGradient id="paint10_linear_11_112" x1="17.403" y1="-71.0748" x2="88.4568" y2="57.6781" gradientUnits="userSpaceOnUse">
<stop offset="0.691812" stop-color="#7300C2"/>
<stop offset="1" stop-color="#D9D9D9" stop-opacity="0"/>
</linearGradient>
<linearGradient id="paint11_linear_11_112" x1="140.936" y1="-71.0748" x2="36.7531" y2="38.0489" gradientUnits="userSpaceOnUse">
<stop offset="0.848788" stop-color="#040EFF"/>
<stop offset="1" stop-color="#D9D9D9" stop-opacity="0"/>
</linearGradient>
<linearGradient id="paint12_linear_11_112" x1="78.1818" y1="-164.472" x2="-17.8485" y2="-144.411" gradientUnits="userSpaceOnUse">
<stop offset="0.848788" stop-color="#040EFF"/>
<stop offset="1" stop-color="#D9D9D9" stop-opacity="0"/>
</linearGradient>
<linearGradient id="paint13_linear_11_112" x1="21.5151" y1="-164.472" x2="145.002" y2="-119.844" gradientUnits="userSpaceOnUse">
<stop offset="0.691812" stop-color="#7300C2"/>
<stop offset="1" stop-color="#D9D9D9" stop-opacity="0"/>
</linearGradient>
</defs>
</svg>
